# xmcd CD database file
#
# Track frame offsets:
#	150
#	17677
#	36892
#	72752
#	131302
#	164802
#	209827
#	246912
#	258470
#	274565
#
# Disc length: 3866 seconds
#
# Revision: 0
# Processed by: cddbd v1.5.1PL2 Copyright (c) Steve Scherf et al.
# Submitted via: CDex 1.51
#
DISCID=930f180a
DTITLE=Eiichi Hayashi - Mazuru's Dream
DYEAR=2000
DGENRE=Jazz
TTITLE0=North East
TTITLE1=Sky Mirror
TTITLE2=Circle
TTITLE3=Naadam
TTITLE4=Smoky God
TTITLE5=Pentagon
TTITLE6=Ondo
TTITLE7=Charivari
TTITLE8=September
TTITLE9=North East (Reprise)
EXTD=YEAR: 2000
EXTT0=
EXTT1=
EXTT2=
EXTT3=
EXTT4=
EXTT5=
EXTT6=
EXTT7=
EXTT8=
EXTT9=
PLAYORDER=
